<?xml version="1.0" encoding="UTF-8" standalone="no"?>
<!-- Created with Inkscape (http://www.inkscape.org/) -->

<svg
   xmlns:dc="http://purl.org/dc/elements/1.1/"
   xmlns:cc="http://creativecommons.org/ns#"
   xmlns:rdf="http://www.w3.org/1999/02/22-rdf-syntax-ns#"
   xmlns:svg="http://www.w3.org/2000/svg"
   xmlns="http://www.w3.org/2000/svg"
   xmlns:xlink="http://www.w3.org/1999/xlink"
   xmlns:sodipodi="http://sodipodi.sourceforge.net/DTD/sodipodi-0.dtd"
   xmlns:inkscape="http://www.inkscape.org/namespaces/inkscape"
   width="48"
   height="48"
   id="svg4230"
   version="1.1"
   inkscape:version="0.48+devel r13502 custom"
   sodipodi:docname="gnome-music.svg"
   inkscape:export-filename="/home/webdesign/Downloads/ozon icons/texteditor.png"
   inkscape:export-xdpi="960"
   inkscape:export-ydpi="960">
  <defs
     id="defs4232">
    <linearGradient
       id="linearGradient4278">
      <stop
         id="stop4281"
         offset="0"
         style="stop-color:#36d7bb;stop-opacity:1" />
      <stop
         id="stop4283"
         offset="1"
         style="stop-color:#37b5e8;stop-opacity:1" />
    </linearGradient>
    <linearGradient
       id="linearGradient4266">
      <stop
         style="stop-color:#f0752f;stop-opacity:0.07843138;"
         offset="0"
         id="stop4268" />
      <stop
         id="stop4274"
         offset="0.5"
         style="stop-color:#f0752f;stop-opacity:0.15686275;" />
      <stop
         style="stop-color:#f0752f;stop-opacity:0.23529412;"
         offset="0.75"
         id="stop4276" />
      <stop
         id="stop4278"
         offset="0.875"
         style="stop-color:#f0752f;stop-opacity:0.3137255;" />
      <stop
         style="stop-color:#f0752f;stop-opacity:0.39215687;"
         offset="0.9375"
         id="stop4280" />
      <stop
         id="stop4282"
         offset="0.96875"
         style="stop-color:#f0752f;stop-opacity:0.47058824;" />
      <stop
         style="stop-color:#f0752f;stop-opacity:0.54901963;"
         offset="0.984375"
         id="stop4284" />
      <stop
         id="stop4286"
         offset="0.9921875"
         style="stop-color:#f0752f;stop-opacity:0.627451;" />
      <stop
         style="stop-color:#f0752f;stop-opacity:0.70588237;"
         offset="0.99609375"
         id="stop4288" />
      <stop
         id="stop4290"
         offset="0.99804688"
         style="stop-color:#f0752f;stop-opacity:0.78431374;" />
      <stop
         style="stop-color:#f0752f;stop-opacity:0.86274511;"
         offset="0.99902344"
         id="stop4292" />
      <stop
         id="stop4294"
         offset="0.99951172"
         style="stop-color:#f0752f;stop-opacity:0.94117647;" />
      <stop
         style="stop-color:#f0752f;stop-opacity:1;"
         offset="1"
         id="stop4270" />
    </linearGradient>
    <linearGradient
       id="linearGradient4223">
      <stop
         style="stop-color:#f0752f;stop-opacity:1;"
         offset="0"
         id="stop4225" />
      <stop
         style="stop-color:#e37a3e;stop-opacity:0;"
         offset="1"
         id="stop4227" />
    </linearGradient>
    <linearGradient
       id="linearGradient4010">
      <stop
         style="stop-color:#4c3549;stop-opacity:1;"
         offset="0"
         id="stop4012" />
      <stop
         style="stop-color:#4c3549;stop-opacity:1;"
         offset="1"
         id="stop4014" />
    </linearGradient>
    <linearGradient
       id="linearGradient3955">
      <stop
         id="stop3957"
         offset="0"
         style="stop-color:#1c0f18;stop-opacity:1;" />
      <stop
         id="stop3959"
         offset="1"
         style="stop-color:#21111b;stop-opacity:1;" />
    </linearGradient>
    <linearGradient
       id="linearGradient3943">
      <stop
         style="stop-color:#c91822;stop-opacity:1;"
         offset="0"
         id="stop3945" />
      <stop
         style="stop-color:#f33040;stop-opacity:1;"
         offset="1"
         id="stop3947" />
    </linearGradient>
    <linearGradient
       id="linearGradient3874">
      <stop
         style="stop-color:#ea508d;stop-opacity:1;"
         offset="0"
         id="stop3876" />
      <stop
         style="stop-color:#e66296;stop-opacity:1;"
         offset="1"
         id="stop3878" />
    </linearGradient>
    <linearGradient
       id="linearGradient4026">
      <stop
         style="stop-color:#f1f1e9;stop-opacity:1;"
         offset="0"
         id="stop4028" />
      <stop
         style="stop-color:#f5f5ea;stop-opacity:1;"
         offset="1"
         id="stop4030" />
    </linearGradient>
    <linearGradient
       id="linearGradient4243">
      <stop
         style="stop-color:#000000;stop-opacity:1;"
         offset="0"
         id="stop4245" />
      <stop
         style="stop-color:#000000;stop-opacity:0;"
         offset="1"
         id="stop4247" />
    </linearGradient>
    <linearGradient
       id="linearGradient4216">
      <stop
         style="stop-color:#a0c4e6;stop-opacity:1;"
         offset="0"
         id="stop4218" />
      <stop
         style="stop-color:#d0e2f1;stop-opacity:1;"
         offset="1"
         id="stop4220" />
    </linearGradient>
    <linearGradient
       id="linearGradient4208">
      <stop
         style="stop-color:#70a3d6;stop-opacity:1;"
         offset="0"
         id="stop4210" />
      <stop
         style="stop-color:#88b6e1;stop-opacity:1;"
         offset="1"
         id="stop4212" />
    </linearGradient>
    <linearGradient
       id="linearGradient4200">
      <stop
         style="stop-color:#427dbe;stop-opacity:1;"
         offset="0"
         id="stop4202" />
      <stop
         style="stop-color:#739bd1;stop-opacity:1;"
         offset="1"
         id="stop4204" />
    </linearGradient>
    <linearGradient
       id="linearGradient4192">
      <stop
         style="stop-color:#4970a4;stop-opacity:1;"
         offset="0"
         id="stop4194" />
      <stop
         style="stop-color:#6090c0;stop-opacity:1;"
         offset="1"
         id="stop4196" />
    </linearGradient>
    <radialGradient
       inkscape:collect="always"
       xlink:href="#linearGradient3688-166-749-5-9-1"
       id="radialGradient4351"
       gradientUnits="userSpaceOnUse"
       gradientTransform="matrix(2.3201711,0,0,0.39999996,28.617836,28.600002)"
       cx="4.9929786"
       cy="43.5"
       fx="4.9929786"
       fy="43.5"
       r="2.5" />
    <linearGradient
       id="linearGradient3688-166-749-5-9-1">
      <stop
         id="stop2883-0-2-9"
         style="stop-color:#181818;stop-opacity:1"
         offset="0" />
      <stop
         id="stop2885-5-3-8"
         style="stop-color:#181818;stop-opacity:0"
         offset="1" />
    </linearGradient>
    <linearGradient
       id="linearGradient3688-464-309-8-9-4">
      <stop
         id="stop2889-9-9-1"
         style="stop-color:#181818;stop-opacity:1"
         offset="0" />
      <stop
         id="stop2891-4-2-9"
         style="stop-color:#181818;stop-opacity:0"
         offset="1" />
    </linearGradient>
    <linearGradient
       id="linearGradient3702-501-757-0-4-0">
      <stop
         id="stop2895-0-2-1"
         style="stop-color:#181818;stop-opacity:0"
         offset="0" />
      <stop
         id="stop2897-2-8-2"
         style="stop-color:#181818;stop-opacity:1"
         offset="0.5" />
      <stop
         id="stop2899-6-1-6"
         style="stop-color:#181818;stop-opacity:0"
         offset="1" />
    </linearGradient>
    <linearGradient
       id="linearGradient3811-3">
      <stop
         style="stop-color:#000000;stop-opacity:1;"
         offset="0"
         id="stop3813-0" />
      <stop
         style="stop-color:#000000;stop-opacity:0;"
         offset="1"
         id="stop3815-0" />
    </linearGradient>
    <clipPath
       id="clipPath-887332295">
      <g
         id="g3945"
         transform="translate(0,-1004.3622)">
        <rect
           id="rect3947"
           fill="#1890d0"
           width="46"
           height="46"
           x="1"
           y="1005.36"
           rx="4" />
      </g>
    </clipPath>
    <clipPath
       id="clipPath-867792831">
      <g
         id="g3940"
         transform="translate(0,-1004.3622)">
        <rect
           id="rect3942"
           fill="#1890d0"
           width="46"
           height="46"
           x="1"
           y="1005.36"
           rx="4" />
      </g>
    </clipPath>
    <linearGradient
       gradientTransform="translate(-47.997785,0.00221467)"
       gradientUnits="userSpaceOnUse"
       x2="47"
       x1="1"
       id="linearGradient3764">
      <stop
         id="stop3935"
         stop-opacity="1"
         stop-color="#e4e4e4" />
      <stop
         id="stop3937"
         stop-opacity="1"
         stop-color="#eee"
         offset="1" />
    </linearGradient>
    <radialGradient
       inkscape:collect="always"
       xlink:href="#linearGradient4243"
       id="radialGradient4274"
       gradientUnits="userSpaceOnUse"
       gradientTransform="matrix(1.0434782,0,0,0.1956518,-1.0434797,35.184809)"
       cx="24.000001"
       cy="42.499991"
       fx="24.000001"
       fy="42.499991"
       r="23" />
    <linearGradient
       inkscape:collect="always"
       xlink:href="#linearGradient4026"
       id="linearGradient4032"
       x1="-41.197594"
       y1="1042.7213"
       x2="-41.197594"
       y2="1002.0031"
       gradientUnits="userSpaceOnUse" />
    <linearGradient
       inkscape:collect="always"
       xlink:href="#linearGradient4026"
       id="linearGradient4078"
       gradientUnits="userSpaceOnUse"
       x1="-41.197594"
       y1="1042.7213"
       x2="-41.197594"
       y2="1002.0031" />
    <linearGradient
       inkscape:collect="always"
       xlink:href="#linearGradient4026"
       id="linearGradient4114"
       gradientUnits="userSpaceOnUse"
       x1="-41.197594"
       y1="1042.7213"
       x2="-41.197594"
       y2="1002.0031" />
    <linearGradient
       inkscape:collect="always"
       xlink:href="#linearGradient4026"
       id="linearGradient4150"
       gradientUnits="userSpaceOnUse"
       x1="-41.197594"
       y1="1042.7213"
       x2="-41.197594"
       y2="1002.0031" />
    <linearGradient
       inkscape:collect="always"
       xlink:href="#linearGradient4278"
       id="linearGradient3880"
       x1="29"
       y1="2"
       x2="29"
       y2="46"
       gradientUnits="userSpaceOnUse" />
    <linearGradient
       y2="-7.7778559"
       x2="78.210526"
       y1="33.777702"
       x1="78.210526"
       gradientTransform="matrix(0.86363632,0,0,0.81818178,-42.545451,1012.7259)"
       gradientUnits="userSpaceOnUse"
       id="linearGradient3084"
       xlink:href="#linearGradient3068"
       inkscape:collect="always" />
    <linearGradient
       id="linearGradient3068">
      <stop
         style="stop-color:#d7366a;stop-opacity:1;"
         offset="0"
         id="stop3070" />
      <stop
         style="stop-color:#e83754;stop-opacity:1;"
         offset="1"
         id="stop3072" />
    </linearGradient>
    <clipPath
       clipPathUnits="userSpaceOnUse"
       id="clipPath7867">
      <circle
         style="opacity:1;fill:#000000;fill-opacity:1;stroke:none;stroke-width:2;stroke-miterlimit:4;stroke-dasharray:none;stroke-opacity:1"
         id="circle7869"
         cx="24"
         cy="1027.3622"
         r="14" />
    </clipPath>
  </defs>
  <sodipodi:namedview
     id="base"
     pagecolor="#ffffff"
     bordercolor="#666666"
     borderopacity="1.0"
     inkscape:pageopacity="0.0"
     inkscape:pageshadow="2"
     inkscape:zoom="6.5019413"
     inkscape:cx="17.444826"
     inkscape:cy="18.692591"
     inkscape:document-units="px"
     inkscape:current-layer="layer1"
     showgrid="true"
     inkscape:showpageshadow="false"
     borderlayer="true"
     inkscape:window-width="1440"
     inkscape:window-height="851"
     inkscape:window-x="0"
     inkscape:window-y="23"
     inkscape:window-maximized="1"
     showguides="false">
    <inkscape:grid
       type="xygrid"
       id="grid4162" />
    <sodipodi:guide
       position="1.0000013,47.000017"
       orientation="46,0"
       id="guide4163" />
    <sodipodi:guide
       position="1.0000013,1.0000174"
       orientation="0,45.999999"
       id="guide4165" />
    <sodipodi:guide
       position="47,1.0000174"
       orientation="-46,0"
       id="guide4167" />
    <sodipodi:guide
       position="47,47.000017"
       orientation="0,-45.999999"
       id="guide4169" />
    <sodipodi:guide
       position="2.0000007,46.000017"
       orientation="44,0"
       id="guide4173" />
    <sodipodi:guide
       position="2.0000007,2.0000174"
       orientation="0,43.999999"
       id="guide4175" />
    <sodipodi:guide
       position="46,2.0000174"
       orientation="-44,0"
       id="guide4177" />
    <sodipodi:guide
       position="46,46.000017"
       orientation="0,-43.999999"
       id="guide4179" />
    <sodipodi:guide
       position="3,45.000017"
       orientation="42,0"
       id="guide4183" />
    <sodipodi:guide
       position="45,3.0000174"
       orientation="-42,0"
       id="guide4187" />
    <sodipodi:guide
       position="45,45.000017"
       orientation="0,-42"
       id="guide4189" />
    <sodipodi:guide
       position="3,45.000017"
       orientation="42,0"
       id="guide4193" />
    <sodipodi:guide
       position="3,3.0000174"
       orientation="0,42"
       id="guide4195" />
    <sodipodi:guide
       position="45,3.0000174"
       orientation="-42,0"
       id="guide4197" />
    <sodipodi:guide
       position="45,45.000017"
       orientation="0,-42"
       id="guide4199" />
    <sodipodi:guide
       position="3,10.000017"
       orientation="7,0"
       id="guide4203" />
    <sodipodi:guide
       position="3,3.0000174"
       orientation="0,42"
       id="guide4205" />
    <sodipodi:guide
       position="45,3.0000174"
       orientation="-7,0"
       id="guide4207" />
    <sodipodi:guide
       position="45,10.000017"
       orientation="0,-42"
       id="guide4209" />
  </sodipodi:namedview>
  <metadata
     id="metadata4235">
    <rdf:RDF>
      <cc:Work
         rdf:about="">
        <dc:format>image/svg+xml</dc:format>
        <dc:type
           rdf:resource="http://purl.org/dc/dcmitype/StillImage" />
        <dc:title />
      </cc:Work>
    </rdf:RDF>
  </metadata>
  <g
     inkscape:groupmode="layer"
     id="layer3"
     inkscape:label="Fake blur shadow"
     style="display:inline"
     sodipodi:insensitive="true">
    <path
       style="opacity:0.06000001;fill:#000000;fill-opacity:1;stroke:none"
       d="M 10,1 C 5.014,1 1,5.014 1,10 l 0,28 c 0,4.986 4.014,9 9,9 l 28,0 c 4.986,0 9,-4.014 9,-9 L 47,10 C 47,5.014 42.986,1 38,1 L 10,1 z m 0.5,0.5 27,0 c 4.986,0 9,4.014 9,9 l 0,27 c 0,4.986 -4.014,9 -9,9 l -27,0 c -4.986,0 -9,-4.014 -9,-9 l 0,-27 c 0,-4.986 4.014,-9 9,-9 z"
       id="rect3829"
       inkscape:connector-curvature="0" />
    <path
       style="opacity:0.12000002;fill:#000000;fill-opacity:1;stroke:none"
       d="m 10.5,1.5 c -4.986,0 -9,4.014 -9,9 l 0,27 c 0,4.986 4.014,9 9,9 l 27,0 c 4.986,0 9,-4.014 9,-9 l 0,-27 c 0,-4.986 -4.014,-9 -9,-9 l -27,0 z m 0.25,0.25 26.5,0 c 4.986,0 9,4.014 9,9 l 0,26.5 c 0,4.986 -4.014,9 -9,9 l -26.5,0 c -4.986,0 -9,-4.014 -9,-9 l 0,-26.5 c 0,-4.986 4.014,-9 9,-9 z"
       id="rect3827"
       inkscape:connector-curvature="0" />
    <rect
       style="opacity:0.23999999;fill:#000000;fill-opacity:1;stroke:none"
       id="rect3038-4"
       width="44.5"
       height="44.5"
       x="1.75"
       y="1.75"
       ry="9"
       rx="9" />
  </g>
  <g
     inkscape:groupmode="layer"
     id="layer6"
     inkscape:label="Blob"
     style="display:inline"
     sodipodi:insensitive="true">
    <path
       style="opacity:0.3;fill:url(#radialGradient4274);fill-opacity:1;stroke:none"
       d="M 1.03125,39 C 1.5192036,43.518898 5.3471961,47 10,47 l 28,0 c 4.652804,0 8.480796,-3.481102 8.96875,-8 l -45.9375,0 z"
       id="rect4241"
       inkscape:connector-curvature="0" />
  </g>
  <g
     inkscape:groupmode="layer"
     id="layer2"
     inkscape:label="Baseplate"
     style="display:inline">
    <rect
       style="fill:url(#linearGradient3880);fill-opacity:1;stroke:none"
       id="rect3038"
       width="44"
       height="44"
       x="2"
       y="1.9999826"
       ry="9"
       rx="9" />
  </g>
  <g
     inkscape:label="Symbol"
     inkscape:groupmode="layer"
     id="layer1"
     transform="translate(0,-1004.3622)"
     style="display:inline">
    <circle
       r="16"
       cy="1028.3622"
       cx="24"
       id="circle7832"
       style="display:inline;opacity:0.15;fill:#000000;fill-opacity:1;stroke:none;stroke-width:2;stroke-miterlimit:4;stroke-dasharray:none;stroke-opacity:1" />
    <circle
       style="display:inline;opacity:1;fill:#084b50;fill-opacity:1;stroke:none;stroke-width:2;stroke-miterlimit:4;stroke-dasharray:none;stroke-opacity:1"
       id="path7776"
       cx="24"
       cy="1027.3622"
       r="16" />
    <path
       id="circle7830"
       style="display:inline;opacity:1;fill:#0f888f;fill-opacity:1;stroke:none;stroke-width:2;stroke-miterlimit:4;stroke-dasharray:none;stroke-opacity:1"
       sodipodi:type="arc"
       sodipodi:cx="24"
       sodipodi:cy="1027.3622"
       sodipodi:rx="16"
       sodipodi:ry="16"
       sodipodi:start="2.0943951"
       sodipodi:end="4.712389"
       d="M 16,1041.2186 A 16,16 0 0 1 8.5451868,1023.2211 16,16 0 0 1 24,1011.3622 l 0,16 z" />
    <circle
       r="14"
       cy="1027.3622"
       cx="24"
       id="circle7836"
       style="opacity:1;fill:#21a9a6;fill-opacity:1;stroke:none;stroke-width:2;stroke-miterlimit:4;stroke-dasharray:none;stroke-opacity:1" />
    <circle
       style="opacity:1;fill:#3cd7d3;fill-opacity:1;stroke:none;stroke-width:2;stroke-miterlimit:4;stroke-dasharray:none;stroke-opacity:1"
       id="path7795"
       cx="24"
       cy="1028.3622"
       r="14"
       clip-path="url(#clipPath7867)" />
    <g
       id="g8013"
       style="display:inline;fill:#186e6c;fill-opacity:1"
       transform="matrix(0.69998575,0,0,0.70000002,7.2003423,307.9421)">
      <path
         style="opacity:1;fill:#186e6c;fill-opacity:1;stroke:none;stroke-width:0.5;stroke-miterlimit:4;stroke-dasharray:none;stroke-opacity:1"
         d="M 26.1875,13.261719 C 23.6874,13.250481 21.124456,13.65185 18,14.5 l 0,4 0,9.175781 A 2.9999998,2.9999998 0 0 0 17,27.5 a 2.9999998,2.9999998 0 0 0 -3,3 2.9999998,2.9999998 0 0 0 3,3 2.9999998,2.9999998 0 0 0 3,-3 l 0,-12.525391 c 4.414689,-1.047392 8.130863,-1.046727 12,-0.0625 l 0,9.763672 a 2.9999999,2.9999999 0 0 0 -0.287109,-0.08594 2.9999998,2.9999998 0 0 0 -0.0098,-0.002 2.9999999,2.9999999 0 0 0 -0.234375,-0.04687 2.9999998,2.9999998 0 0 0 -0.0957,-0.01367 2.9999999,2.9999999 0 0 0 -0.158203,-0.01563 A 2.9999998,2.9999998 0 0 0 31,27.5 a 2.9999999,2.9999999 0 0 0 -0.263672,0.01367 2.9999998,2.9999998 0 0 0 -0.107422,0.01367 2.9999999,2.9999999 0 0 0 -0.199218,0.0293 2.9999998,2.9999998 0 0 0 -0.0918,0.02148 2.9999999,2.9999999 0 0 0 -0.195313,0.04883 2.9999998,2.9999998 0 0 0 -0.09766,0.0332 2.9999999,2.9999999 0 0 0 -0.181641,0.06445 2.9999998,2.9999998 0 0 0 -0.111328,0.05078 2.9999999,2.9999999 0 0 0 -0.160156,0.07813 2.9999998,2.9999998 0 0 0 -0.09375,0.05273 2.9999999,2.9999999 0 0 0 -0.162109,0.09961 2.9999998,2.9999998 0 0 0 -0.117188,0.08398 2.9999999,2.9999999 0 0 0 -0.109375,0.08203 2.9999998,2.9999998 0 0 0 -0.132813,0.117187 2.9999999,2.9999999 0 0 0 -0.0957,0.0918 2.9999998,2.9999998 0 0 0 -0.0918,0.0957 2.9999999,2.9999999 0 0 0 -0.117187,0.132813 2.9999998,2.9999998 0 0 0 -0.07031,0.09375 2.9999999,2.9999999 0 0 0 -0.105468,0.148437 2.9999998,2.9999998 0 0 0 -0.07031,0.113282 2.9999999,2.9999999 0 0 0 -0.07422,0.130859 2.9999998,2.9999998 0 0 0 -0.07617,0.15625 2.9999999,2.9999999 0 0 0 -0.05078,0.111328 2.9999998,2.9999998 0 0 0 -0.06445,0.181641 2.9999999,2.9999999 0 0 0 -0.0332,0.09766 2.9999998,2.9999998 0 0 0 -0.04883,0.195313 2.9999999,2.9999999 0 0 0 -0.02148,0.0918 2.9999998,2.9999998 0 0 0 -0.0293,0.199218 A 2.9999999,2.9999999 0 0 0 28.01368,30.23632 2.9999998,2.9999998 0 0 0 28,30.5 a 2.9999999,2.9999999 0 0 0 0.01367,0.263672 2.9999998,2.9999998 0 0 0 0.01367,0.107422 2.9999999,2.9999999 0 0 0 0.0293,0.199218 2.9999998,2.9999998 0 0 0 0.02148,0.0918 2.9999999,2.9999999 0 0 0 0.04883,0.195313 2.9999998,2.9999998 0 0 0 0.0332,0.09766 2.9999999,2.9999999 0 0 0 0.06445,0.181641 2.9999998,2.9999998 0 0 0 0.05078,0.111328 2.9999999,2.9999999 0 0 0 0.07617,0.15625 2.9999998,2.9999998 0 0 0 0.07422,0.130859 2.9999999,2.9999999 0 0 0 0.07031,0.113282 2.9999998,2.9999998 0 0 0 0.105468,0.148437 2.9999999,2.9999999 0 0 0 0.07031,0.09375 2.9999998,2.9999998 0 0 0 0.117187,0.132813 2.9999999,2.9999999 0 0 0 0.0918,0.0957 2.9999998,2.9999998 0 0 0 0.0957,0.0918 2.9999999,2.9999999 0 0 0 0.132813,0.117187 2.9999998,2.9999998 0 0 0 0.09375,0.07031 2.9999999,2.9999999 0 0 0 0.148437,0.105468 2.9999998,2.9999998 0 0 0 0.113282,0.07031 2.9999999,2.9999999 0 0 0 0.130859,0.07422 2.9999998,2.9999998 0 0 0 0.15625,0.07617 2.9999999,2.9999999 0 0 0 0.111328,0.05078 2.9999998,2.9999998 0 0 0 0.181641,0.06445 2.9999999,2.9999999 0 0 0 0.09766,0.0332 2.9999998,2.9999998 0 0 0 0.195313,0.04883 2.9999999,2.9999999 0 0 0 0.0918,0.02148 2.9999998,2.9999998 0 0 0 0.199218,0.0293 2.9999999,2.9999999 0 0 0 0.107422,0.01367 A 2.9999998,2.9999998 0 0 0 31,33.5 a 2.9999999,2.9999999 0 0 0 0.263672,-0.01367 2.9999998,2.9999998 0 0 0 0.107422,-0.01367 2.9999999,2.9999999 0 0 0 0.199218,-0.0293 2.9999998,2.9999998 0 0 0 0.0918,-0.02148 2.9999999,2.9999999 0 0 0 0.195313,-0.04883 2.9999998,2.9999998 0 0 0 0.09766,-0.0332 2.9999999,2.9999999 0 0 0 0.181641,-0.06445 2.9999998,2.9999998 0 0 0 0.111328,-0.05078 2.9999999,2.9999999 0 0 0 0.15625,-0.07617 2.9999998,2.9999998 0 0 0 0.130859,-0.07422 2.9999999,2.9999999 0 0 0 0.113282,-0.07031 2.9999998,2.9999998 0 0 0 0.148437,-0.105468 2.9999999,2.9999999 0 0 0 0.09375,-0.07031 2.9999998,2.9999998 0 0 0 0.132813,-0.117187 2.9999999,2.9999999 0 0 0 0.0957,-0.0918 2.9999998,2.9999998 0 0 0 0.0918,-0.0957 2.9999999,2.9999999 0 0 0 0.117187,-0.132813 2.9999998,2.9999998 0 0 0 0.07031,-0.09375 2.9999999,2.9999999 0 0 0 0.105468,-0.148437 2.9999998,2.9999998 0 0 0 0.07031,-0.113282 2.9999999,2.9999999 0 0 0 0.07422,-0.130859 2.9999998,2.9999998 0 0 0 0.07617,-0.15625 2.9999999,2.9999999 0 0 0 0.05078,-0.111328 2.9999998,2.9999998 0 0 0 0.06445,-0.181641 2.9999999,2.9999999 0 0 0 0.0332,-0.09766 2.9999998,2.9999998 0 0 0 0.04883,-0.195313 2.9999999,2.9999999 0 0 0 0.02148,-0.0918 2.9999998,2.9999998 0 0 0 0.0293,-0.199218 2.9999999,2.9999999 0 0 0 0.01367,-0.107422 A 2.9999998,2.9999998 0 0 0 34,30.5 l 0,-12 0,-4 c -2.875142,-0.8032 -5.3124,-1.227044 -7.8125,-1.238281 z"
         transform="translate(-5e-7,1004.3622)"
         id="path7377"
         inkscape:connector-curvature="0" />
    </g>
  </g>
  <g
     inkscape:groupmode="layer"
     id="layer4"
     inkscape:label="Inset"
     style="display:inline">
    <path
       style="opacity:0.15;fill:#000000;fill-opacity:1;stroke:none"
       d="m 2,34 0,3 c 0,4.986 4.014,9 9,9 l 26,0 c 4.986,0 9,-4.014 9,-9 l 0,-3 c 0,4.986 -4.014,9 -9,9 L 11,43 C 6.014,43 2,38.986 2,34 Z"
       id="rect3038-42"
       inkscape:connector-curvature="0" />
  </g>
  <g
     inkscape:groupmode="layer"
     id="layer7"
     inkscape:label="Baseshape"
     sodipodi:insensitive="true"
     style="display:none">
    <rect
       rx="9"
       ry="9"
       y="2"
       x="2"
       height="44"
       width="44"
       id="rect4169"
       style="fill:#abe1ad;fill-opacity:1;stroke:none;display:inline" />
  </g>
</svg>
